<svg width="55" height="55" viewBox="0 0 55 55" fill="none" xmlns="http://www.w3.org/2000/svg">
<path d="M16.211 7.80596C16.211 3.49485 18.6841 -1.92859e-07 21.7349 0C24.2083 1.5636e-07 26.302 2.29722 27.0059 5.46418L27.0059 27.3209C20.5577 23.4546 16.211 16.1635 16.211 7.80596Z" fill="url(#paint0_linear_5365_11375)"/>
<path d="M37.8008 7.80596C37.8008 3.49485 35.3277 -1.92859e-07 32.2769 0C29.8035 1.5636e-07 27.7098 2.29722 27.0059 5.46418L27.0059 27.3209C33.4541 23.4546 37.8008 16.1635 37.8008 7.80596Z" fill="url(#paint1_linear_5365_11375)"/>
<path d="M40.1875 7.7408C47.817 7.7408 54.002 13.7859 54.002 21.243C54.002 35.6993 43.1315 48.3109 27.0055 54.9984L27.0055 55C10.8742 48.3122 0.000228882 35.7002 0.000228882 21.2434C0.000228882 13.7861 6.18718 7.7408 13.8192 7.7408C20.0068 7.7408 25.2446 11.7145 27.0055 17.1926C28.7658 11.7147 34.0019 7.7408 40.1875 7.7408Z" fill="url(#paint2_linear_5365_11375)"/>
<path d="M54.012 21.2428C54.012 13.7854 47.8239 7.74 40.1906 7.74C34.0019 7.74 28.7632 11.7138 27.002 17.192L27.002 55C43.1361 48.3121 54.012 35.6998 54.012 21.2428Z" fill="url(#paint3_linear_5365_11375)"/>
<path d="M13.7752 27.1532C13.7752 23.2601 16.8064 20.1042 20.5455 20.1042C23.577 20.1042 26.1431 22.1787 27.0059 25.0385L27.0059 44.7756C19.1027 41.2843 13.7752 34.7003 13.7752 27.1532Z" fill="url(#paint4_linear_5365_11375)"/>
<path fill-rule="evenodd" clip-rule="evenodd" d="M32.3382 40.4392C32.3382 41.9679 33.5774 43.2071 35.1061 43.2071C36.6348 43.2071 37.874 41.9679 37.874 40.4392C37.874 38.9105 36.6348 37.6713 35.1061 37.6713C33.5774 37.6713 32.3382 38.9105 32.3382 40.4392Z" fill="url(#paint5_linear_5365_11375)"/>
<defs>
<linearGradient id="paint0_linear_5365_11375" x1="21.6084" y1="27.3209" x2="21.6084" y2="0" gradientUnits="userSpaceOnUse">
<stop stop-color="#C51EA9"/>
<stop offset="1" stop-color="#C51EA9" stop-opacity="0"/>
</linearGradient>
<linearGradient id="paint1_linear_5365_11375" x1="32.4033" y1="27.3209" x2="32.4033" y2="0" gradientUnits="userSpaceOnUse">
<stop stop-color="#C51EA9" stop-opacity="0"/>
<stop offset="1" stop-color="#4F3CE4" stop-opacity="0.75"/>
</linearGradient>
<linearGradient id="paint2_linear_5365_11375" x1="15.502" y1="55.0001" x2="15.502" y2="8.00008" gradientUnits="userSpaceOnUse">
<stop stop-color="#F33D5E"/>
<stop offset="0.499912" stop-color="#C51EA9"/>
<stop offset="1" stop-color="#4F3CE4"/>
</linearGradient>
<linearGradient id="paint3_linear_5365_11375" x1="27.002" y1="31.37" x2="54.012" y2="31.37" gradientUnits="userSpaceOnUse">
<stop stop-color="#F33D5E" stop-opacity="0"/>
<stop offset="1" stop-color="#F33D5E"/>
</linearGradient>
<linearGradient id="paint4_linear_5365_11375" x1="27.0059" y1="20.1042" x2="13.7752" y2="20.1042" gradientUnits="userSpaceOnUse">
<stop stop-color="#F33D5E" stop-opacity="0"/>
<stop offset="1" stop-color="white"/>
</linearGradient>
<linearGradient id="paint5_linear_5365_11375" x1="32.4903" y1="38.0126" x2="37.6057" y2="43.1265" gradientUnits="userSpaceOnUse">
<stop stop-color="white"/>
<stop offset="1" stop-color="white" stop-opacity="0"/>
</linearGradient>
</defs>
</svg>
