<svg width="25" height="24" viewBox="0 0 25 24" fill="none" xmlns="http://www.w3.org/2000/svg">
<path d="M21.7309 6.27608C21.039 6.58103 20.3059 6.78226 19.5553 6.8733C20.3472 6.39938 20.9399 5.65373 21.2229 4.77527C20.4783 5.21645 19.6638 5.52728 18.8146 5.69437C18.2948 5.14119 17.6209 4.75689 16.8801 4.59128C16.1393 4.42567 15.3658 4.48638 14.66 4.76555C13.9541 5.04472 13.3484 5.52948 12.9213 6.15699C12.4942 6.7845 12.2654 7.52584 12.2646 8.28491C12.2651 8.57586 12.2976 8.86587 12.3615 9.14971C10.8568 9.07617 9.38426 8.68786 8.03894 8.00986C6.69362 7.33185 5.50544 6.37923 4.55116 5.21349C4.06992 6.04477 3.92238 7.0278 4.13836 7.96373C4.35434 8.89965 4.91773 9.71862 5.71457 10.255C5.11247 10.2359 4.52356 10.0737 3.9966 9.78183V9.83225C3.99727 10.7067 4.30038 11.554 4.85454 12.2304C5.40869 12.9069 6.17976 13.3708 7.03698 13.5435C6.47903 13.6933 5.89459 13.7158 5.32677 13.6095C5.56796 14.3621 6.03872 15.0204 6.67301 15.4919C7.3073 15.9635 8.0733 16.2246 8.86354 16.2388C7.52182 17.288 5.86659 17.8561 4.16336 17.852C3.86136 17.8517 3.55963 17.8336 3.25977 17.7978C4.99379 18.9149 7.01412 19.5062 9.07683 19.5002C16.0573 19.5002 19.8539 13.7297 19.8539 8.727C19.8539 8.56025 19.8539 8.39737 19.8539 8.23449C20.5907 7.69812 21.2263 7.035 21.7309 6.27608Z" fill="#1DA1F2"/>
</svg>
