<svg width="25" height="24" viewBox="0 0 25 24" fill="none" xmlns="http://www.w3.org/2000/svg">
<path d="M12.5 3.75007C7.94366 3.75007 4.25 7.44372 4.25 12C4.25 15.4951 6.42455 18.483 9.49347 19.685C9.42138 19.0323 9.35618 18.0284 9.52207 17.3159C9.672 16.672 10.4895 13.2151 10.4895 13.2151C10.4895 13.2151 10.2427 12.7209 10.2427 11.9902C10.2427 10.8431 10.9076 9.98664 11.7355 9.98664C12.4394 9.98664 12.7793 10.5151 12.7793 11.1487C12.7793 11.8566 12.3287 12.9149 12.0961 13.8956C11.9017 14.7168 12.5079 15.3864 13.3178 15.3864C14.7841 15.3864 15.9112 13.8403 15.9112 11.6085C15.9112 9.63322 14.4919 8.25214 12.4651 8.25214C10.1177 8.25214 8.7399 10.0128 8.7399 11.8324C8.7399 12.5415 9.01304 13.3018 9.35389 13.7151C9.42131 13.7968 9.43118 13.8684 9.4111 13.9518C9.34848 14.2123 9.2093 14.7727 9.18198 14.8874C9.146 15.0384 9.06241 15.0704 8.90606 14.9977C7.87569 14.5181 7.23148 13.0116 7.23148 11.8016C7.23148 9.19919 9.12233 6.80918 12.6826 6.80918C15.5445 6.80918 17.7685 8.84854 17.7685 11.574C17.7685 14.4172 15.9758 16.7055 13.4875 16.7055C12.6515 16.7055 11.8656 16.2712 11.5966 15.7581C11.5966 15.7581 11.1829 17.3333 11.0826 17.7193C10.8964 18.4359 10.3936 19.3341 10.0573 19.8821C10.8292 20.1211 11.6495 20.25 12.5 20.25C17.0563 20.25 20.75 16.5563 20.75 12C20.75 7.44372 17.0563 3.75007 12.5 3.75007Z" fill="#E60023"/>
</svg>
