<svg width="25" height="24" viewBox="0 0 25 24" fill="none" xmlns="http://www.w3.org/2000/svg">
<path fill-rule="evenodd" clip-rule="evenodd" d="M7.90857 7.69782H4.49894V18.6626H7.90857V7.69782ZM7.30329 2.58302C6.97834 2.36589 6.5963 2.25 6.20548 2.25C5.68142 2.25 5.1788 2.45819 4.80823 2.82876C4.43766 3.19933 4.22949 3.70193 4.22949 4.226C4.22949 4.61682 4.34538 4.99886 4.56251 5.32381C4.77963 5.64877 5.08823 5.90203 5.4493 6.05159C5.81036 6.20115 6.20767 6.24028 6.59098 6.16404C6.97429 6.08779 7.32639 5.89959 7.60274 5.62325C7.87909 5.3469 8.06728 4.99481 8.14352 4.6115C8.21977 4.2282 8.18064 3.83089 8.03108 3.46982C7.88152 3.10875 7.62824 2.80014 7.30329 2.58302ZM13.3114 7.69775H10.0469L10.0607 18.6625H13.4634V13.2388C13.4634 11.8052 13.7605 10.4234 15.5085 10.4234C17.2565 10.4234 17.2772 12.0608 17.2772 13.3321V18.6625H20.6834V12.6481C20.6834 9.69794 20.0513 7.4283 16.5967 7.4283C15.9497 7.40401 15.3083 7.55569 14.7407 7.86716C14.1731 8.17864 13.7006 8.63825 13.3736 9.19703H13.3114V7.69775Z" fill="#0A66C2"/>
</svg>
