<svg width="25" height="24" viewBox="0 0 25 24" fill="none" xmlns="http://www.w3.org/2000/svg">
<path fill-rule="evenodd" clip-rule="evenodd" d="M13.5 4.63322H13.5001C15.8973 4.63322 16.1842 4.63322 17.1317 4.68607C17.7018 4.69104 18.2665 4.79581 18.8004 4.99564C19.1868 5.14571 19.5377 5.37459 19.8309 5.66772C20.124 5.96085 20.3529 6.31181 20.503 6.69824C20.7028 7.23211 20.8076 7.79685 20.8125 8.36687C20.8578 9.31443 20.8654 9.60135 20.8654 11.9986C20.8654 14.3958 20.8654 14.6827 20.8125 15.6303C20.8076 16.2003 20.7028 16.7651 20.503 17.2989C20.3529 17.6854 20.124 18.0363 19.8309 18.3294C19.5377 18.6226 19.1868 18.8515 18.8004 19.0015C18.2665 19.2014 17.7018 19.3061 17.1317 19.3111C16.1842 19.3564 15.901 19.3639 13.5 19.3639C11.099 19.3639 10.8159 19.3639 9.86831 19.3111C9.29829 19.3061 8.73355 19.2014 8.19969 19.0015C7.81326 18.8515 7.4623 18.6226 7.16916 18.3294C6.87603 18.0363 6.64715 17.6854 6.49708 17.2989C6.29725 16.7651 6.19248 16.2003 6.18751 15.6303C6.14221 14.6827 6.13466 14.3958 6.13466 11.9986C6.13466 9.60135 6.13466 9.31443 6.18751 8.36687C6.19248 7.79685 6.29725 7.23211 6.49708 6.69824C6.64715 6.31181 6.87603 5.96085 7.16916 5.66772C7.4623 5.37459 7.81326 5.14571 8.19969 4.99564C8.73355 4.79581 9.29829 4.69104 9.86831 4.68607C10.8159 4.64077 11.1028 4.63322 13.5 4.63322ZM13.5 3.01367C11.0613 3.01367 10.7555 3.01367 9.79658 3.06652C9.05078 3.08194 8.31297 3.22363 7.61452 3.48557C7.01263 3.71485 6.46603 4.06883 6.0106 4.52426C5.55516 4.9797 5.20118 5.5263 4.9719 6.12819C4.70996 6.82665 4.56828 7.56444 4.55286 8.31024C4.51133 9.26913 4.5 9.57492 4.5 12.0137C4.5 14.4524 4.50001 14.7582 4.55286 15.7171C4.56828 16.4629 4.70996 17.2007 4.9719 17.8992C5.20118 18.5011 5.55516 19.0477 6.0106 19.5031C6.46603 19.9585 7.01263 20.3125 7.61452 20.5418C8.31297 20.8037 9.05078 20.9454 9.79658 20.9608C10.7555 21.0024 11.0613 21.0137 13.5 21.0137C15.9388 21.0137 16.2446 21.0137 17.2035 20.9608C17.9493 20.9454 18.6871 20.8037 19.3855 20.5418C19.9874 20.3125 20.534 19.9585 20.9894 19.5031C21.4449 19.0477 21.7989 18.5011 22.0281 17.8992C22.2901 17.2007 22.4318 16.4629 22.4472 15.7171C22.4887 14.7582 22.5 14.4524 22.5 12.0137C22.5 9.57492 22.5 9.26913 22.4472 8.31024C22.4318 7.56444 22.2901 6.82665 22.0281 6.12819C21.7989 5.5263 21.4449 4.9797 20.9894 4.52426C20.534 4.06883 19.9874 3.71485 19.3855 3.48557C18.6871 3.22363 17.9493 3.08194 17.2035 3.06652C16.2446 3.025 15.9388 3.01367 13.5 3.01367ZM13.5 7.38184C12.5876 7.38184 11.6956 7.6524 10.937 8.15931C10.1783 8.66622 9.58705 9.38672 9.23788 10.2297C8.88871 11.0726 8.79736 12.0002 8.97536 12.8951C9.15337 13.79 9.59272 14.612 10.2379 15.2572C10.8831 15.9023 11.7051 16.3417 12.6 16.5197C13.4948 16.6977 14.4224 16.6064 15.2654 16.2572C16.1084 15.908 16.8289 15.3167 17.3358 14.5581C17.8427 13.7994 18.1132 12.9075 18.1132 11.9951C18.1132 10.7716 17.6272 9.59819 16.762 8.73303C15.8969 7.86788 14.7235 7.38184 13.5 7.38184ZM13.5 14.9888C12.9079 14.9888 12.3291 14.8132 11.8367 14.4843C11.3444 14.1553 10.9607 13.6878 10.7341 13.1407C10.5076 12.5937 10.4483 11.9918 10.5638 11.4111C10.6793 10.8303 10.9644 10.2969 11.3831 9.87822C11.8018 9.45954 12.3352 9.17442 12.9159 9.05891C13.4967 8.94339 14.0986 9.00268 14.6456 9.22927C15.1926 9.45585 15.6602 9.83957 15.9892 10.3319C16.3181 10.8242 16.4937 11.403 16.4937 11.9951C16.4937 12.7891 16.1783 13.5505 15.6168 14.112C15.0554 14.6734 14.294 14.9888 13.5 14.9888ZM19.3742 7.2003C19.3742 7.79661 18.8908 8.28 18.2945 8.28C17.6982 8.28 17.2148 7.79661 17.2148 7.2003C17.2148 6.604 17.6982 6.12061 18.2945 6.12061C18.8908 6.12061 19.3742 6.604 19.3742 7.2003Z" fill="url(#paint0_linear)"/>
<defs>
<linearGradient id="paint0_linear" x1="4.5" y1="21.0137" x2="25.9499" y2="9.36775" gradientUnits="userSpaceOnUse">
<stop offset="0.05" stop-color="#FDD91D"/>
<stop offset="0.5" stop-color="#EE0064"/>
<stop offset="0.95" stop-color="#B415B7"/>
</linearGradient>
</defs>
</svg>
