<svg width="25" height="24" viewBox="0 0 25 24" fill="none" xmlns="http://www.w3.org/2000/svg">
<path fill-rule="evenodd" clip-rule="evenodd" d="M13.2285 20.2111C17.4421 19.8567 20.75 16.3124 20.75 11.9806C20.75 7.45178 17.0877 3.75 12.5197 3.75C7.95167 3.75 4.25 7.45178 4.25 11.9806C4.25 15.9184 7.00628 19.2263 10.747 20.0535V13.8318H9.36876V11.8628H10.7077V11.1933C10.7077 10.4057 10.8258 9.81497 10.9833 9.42116C11.1408 9.02735 11.4559 8.75169 11.889 8.47602C12.3222 8.23974 12.8735 8.1216 13.5824 8.1216C14.2912 8.1216 15 8.20036 15.6695 8.43664L15.3544 10.1694C14.9606 10.0513 14.5669 10.0119 14.2124 10.0119C13.858 10.0119 13.5824 10.13 13.4642 10.2875C13.2673 10.4451 13.2279 10.7207 13.2279 11.2327V11.8628H15.0394V13.8318H13.2279V20.2112C13.2281 20.2112 13.2283 20.2112 13.2285 20.2111ZM10.7805 20.0606C11.2895 20.1611 11.7985 20.2318 12.3074 20.2475C11.7689 20.2325 11.2599 20.1617 10.7805 20.0606Z" fill="#1877F2"/>
</svg>
