<svg width="25" height="24" viewBox="0 0 25 24" fill="none" xmlns="http://www.w3.org/2000/svg">
<path fill-rule="evenodd" clip-rule="evenodd" d="M20.8124 4.95203C21.7165 5.19552 22.4294 5.90828 22.6727 6.8125C23.1249 8.46411 23.1076 11.9068 23.1076 11.9068C23.1076 11.9068 23.1076 15.3319 22.6729 16.9837C22.4294 17.8877 21.7167 18.6006 20.8124 18.844C19.1607 19.2788 12.5538 19.2788 12.5538 19.2788C12.5538 19.2788 5.96411 19.2788 4.29511 18.8267C3.39088 18.5832 2.67813 17.8703 2.43464 16.9663C2 15.3319 2 11.8894 2 11.8894C2 11.8894 2 8.46411 2.43464 6.8125C2.67797 5.90844 3.40828 5.17813 4.29495 4.9348C5.94672 4.5 12.5536 4.5 12.5536 4.5C12.5536 4.5 19.1607 4.5 20.8124 4.95203ZM15.9441 11.8894L10.45 15.0538V8.72499L15.9441 11.8894Z" fill="#F91E2F"/>
</svg>
