<svg width="95" height="34" viewBox="0 0 95 34" fill="none" xmlns="http://www.w3.org/2000/svg">
<path d="M4.92833 23.049H0.657564V7.30264H4.92833V23.049ZM9.02595 16.9773C10.342 18.4052 12.3453 19.4772 14.4483 19.4772C16.4211 19.4772 17.801 18.2756 17.801 16.6197C17.801 13.7 13.5293 13.3424 10.4408 11.5578C8.63334 10.5178 7.18525 8.95945 7.18525 6.39306C7.18525 2.33661 10.9672 0 14.778 0C17.111 0 19.2796 0.551992 21.4491 2.14313L19.1493 5.38843C18.2277 4.54449 16.6834 3.89664 15.1706 3.89664C13.497 3.89664 11.6239 4.60844 11.6239 6.36111C11.6239 10.0314 22.2379 8.89293 22.2379 16.5567C22.2379 20.5794 18.5888 23.3712 14.4483 23.3712C11.3607 23.3712 8.50129 22.1075 6.13506 19.9627L9.02595 16.9773ZM35.5075 23.049C34.9496 23.2425 33.6659 23.3712 32.8448 23.3712C30.2818 23.3712 28.4096 22.5273 27.3236 21.0994C26.5025 20.0291 26.1405 18.635 26.1405 16.3925V10.8745H21.7053V7.30264H26.1405V2.92053H30.413V7.30264H35.671V10.8745H30.413V16.878C30.413 17.855 30.5765 18.4372 30.9394 18.8604C31.3644 19.3485 32.0552 19.6387 33.1071 19.6387C33.7315 19.6387 34.5552 19.5437 34.8499 19.4772L35.5075 23.049ZM44.9812 6.97787C49.8098 6.97787 53.4588 10.6473 53.4588 15.1927C53.4588 19.7364 49.8098 23.3712 44.9812 23.3712C40.1516 23.3712 36.5026 19.7364 36.5026 15.1927C36.5026 10.6473 40.1516 6.97787 44.9812 6.97787ZM44.9812 19.4772C47.4786 19.4772 49.1854 17.5613 49.1854 15.1927C49.1854 12.8216 47.4786 10.8745 44.9812 10.8745C42.4829 10.8745 40.7751 12.8216 40.7751 15.1927C40.7751 17.5613 42.4829 19.4772 44.9812 19.4772ZM70.3294 19.834C68.4537 22.3027 66.0866 23.3712 63.0969 23.3712C58.1686 23.3712 54.5528 19.7364 54.5528 15.1927C54.5528 10.6154 58.2665 6.97787 63.1301 6.97787C65.8916 6.97787 68.3557 8.24594 69.8335 10.1273L66.8106 12.7559C65.9589 11.6528 64.677 10.8745 63.1301 10.8745C60.666 10.8745 58.8253 12.7905 58.8253 15.1927C58.8253 17.6598 60.6345 19.4772 63.2307 19.4772C64.9708 19.4772 66.3515 18.4372 67.0415 17.3997L70.3294 19.834ZM79.9368 14.3807L88.7119 23.049H82.9598L76.2214 16.2292V23.049H71.9515V0.323929H76.2214V12.4017L81.7094 7.30264H87.7264L79.9368 14.3807ZM0 2.75899C0 2.02725 0.294244 1.3255 0.818026 0.808083C1.34181 0.290668 2.05222 0 2.79296 0C3.5337 0 4.24408 0.290668 4.76787 0.808083C5.29165 1.3255 5.58592 2.02725 5.58592 2.75899C5.58592 3.49072 5.29165 4.19253 4.76787 4.70994C4.24408 5.22736 3.5337 5.51802 2.79296 5.51802C2.05222 5.51802 1.34181 5.22736 0.818026 4.70994C0.294244 4.19253 0 3.49072 0 2.75899ZM88.8911 20.6131C88.8911 19.8815 89.1853 19.1798 89.709 18.6625C90.2327 18.1452 90.943 17.8545 91.6836 17.8545C92.4243 17.8545 93.1345 18.1452 93.6582 18.6625C94.1819 19.1798 94.4762 19.8815 94.4762 20.6131C94.4762 21.3447 94.1819 22.0464 93.6582 22.5637C93.1345 23.0811 92.4243 23.3717 91.6836 23.3717C90.943 23.3717 90.2327 23.0811 89.709 22.5637C89.1853 22.0464 88.8911 21.3447 88.8911 20.6131ZM32.7285 30.8916H33.3319V26.7669H32.7206V26.1311H34.0297V27.9702C34.4407 27.5374 34.9172 27.3327 35.504 27.3327C36.7518 27.3327 37.6446 28.2734 37.6446 29.4767C37.6446 30.6938 36.7335 31.6293 35.4804 31.6293C34.9172 31.6293 34.4783 31.4324 34.0419 30.9953V31.5394H32.7285V30.8916ZM35.4664 27.9996C34.6934 27.9996 34.0297 28.631 34.0297 29.5C34.0297 30.3146 34.6943 30.9589 35.4576 30.9589C36.2359 30.9589 36.8978 30.3439 36.8978 29.462C36.8978 28.6077 36.2359 27.9996 35.4664 27.9996ZM38.5497 32.2167H39.1967L39.5211 31.4159L38.1806 28.0764H37.6341V27.4303H39.4809V28.0764H38.9108L39.8823 30.5158L40.8591 28.0764H40.2906V27.4303H42.1305V28.0764H41.5909L39.9278 32.2167H40.5049V32.8602H38.5497V32.2167ZM46.4642 28.8297H49.7888V31.5394H49.1986V30.686C48.597 31.333 47.9105 31.6457 47.0824 31.6457C45.442 31.6457 44.2781 30.3794 44.2781 28.7977C44.2781 27.3379 45.4647 26.0223 47.155 26.0223C47.7854 26.0223 48.2883 26.1959 48.8208 26.5864V26.1311H49.4189V27.5815H48.743C48.2725 27.0425 47.7584 26.7816 47.1113 26.7816C45.9404 26.7816 45.0782 27.7188 45.0782 28.8219C45.0782 30.0088 45.971 30.8985 47.1008 30.8985C47.9516 30.8985 48.7141 30.3439 48.9677 29.4827H46.4642V28.8297ZM54.6376 30.2377C54.2843 31.1343 53.5209 31.6353 52.6062 31.6353C52.3204 31.6378 52.037 31.5839 51.7724 31.4769C51.5079 31.3699 51.2676 31.2119 51.0655 31.0121C50.8635 30.8124 50.7037 30.5749 50.5956 30.3135C50.4875 30.052 50.4332 29.772 50.4359 29.4896C50.4359 28.2682 51.4433 27.3206 52.5844 27.3206C53.7999 27.3206 54.7705 28.2579 54.7705 29.5199C54.7705 29.5821 54.7705 29.6589 54.7556 29.7574H51.1966C51.3112 30.4882 51.8997 30.9676 52.5975 30.9676C53.123 30.9676 53.5681 30.7162 53.8217 30.2377H54.6376ZM54.0001 29.1735C53.813 28.4116 53.2892 27.9779 52.6062 27.9779C51.9137 27.9779 51.3331 28.4418 51.1966 29.1735H54.0001ZM55.631 28.066H54.9908V27.4303H55.631V26.1311H56.3305V27.4303H56.9461V28.066H56.3305V30.8916H56.9461V31.5394H55.631V28.066ZM57.9622 28.066H57.3239V27.4303H57.9622V26.1311H58.6635V27.4303H59.2765V28.066H58.6644V30.8916H59.2765V31.5394H57.9622V28.066ZM60.6074 32.2167H61.2562L61.5806 31.4159L60.2384 28.0764H59.6918V27.4303H61.5404V28.0764H60.9685L61.9392 30.5158L62.9203 28.0764H62.3493V27.4303H64.1926V28.0764H63.6513L61.9855 32.2167H62.5661V32.8602H60.6074V32.2167ZM66.3 30.8838H66.9068V26.7816H66.2991V26.1311H68.2937V26.7816H67.6685V30.8838H68.2937V31.5394H66.3V30.8838ZM68.8769 30.8916H69.4689V28.066H68.8831V27.4303H70.1624V28.0142C70.4177 27.5719 70.778 27.3629 71.2948 27.3629C71.9034 27.3629 72.3476 27.6497 72.6012 28.1801C72.9247 27.6203 73.3199 27.3551 73.8822 27.3551C74.9071 27.3551 75.3758 28.092 75.3758 29.1095V30.8916H75.9765V31.5394H74.0807V30.8916H74.6754V29.0715C74.6754 28.3796 74.3518 28.0073 73.7756 28.0073C73.1127 28.0073 72.7586 28.4945 72.7586 29.462V30.8916H73.3619V31.5394H71.4784V30.8916H72.0792V29.5294C72.0792 28.5645 71.9707 28.0073 71.1549 28.0073C70.5253 28.0073 70.1624 28.4945 70.1624 29.462V30.8916H70.7657V31.5394H68.8769V30.8916ZM79.7934 30.9953C79.3562 31.4324 78.9137 31.6293 78.3593 31.6293C77.0975 31.6293 76.1969 30.6938 76.1969 29.4767C76.1969 28.2734 77.0661 27.3379 78.3314 27.3379C78.9234 27.3379 79.3982 27.5279 79.8101 27.9702V27.4303H81.0937V28.066H80.5035V30.8838H81.1007V31.5394H79.7934V30.9953ZM78.3699 27.9996C77.6003 27.9996 76.9358 28.6077 76.9358 29.462C76.9358 30.3439 77.6003 30.9589 78.3742 30.9589C79.1359 30.9589 79.7996 30.3198 79.7996 29.5C79.7996 28.631 79.1359 27.9996 78.3699 27.9996ZM82.4998 31.7805C82.6467 32.2167 83.0394 32.4508 83.6252 32.4508C84.3668 32.4508 84.9893 31.923 85.0199 31.1654L85.0269 30.9589C84.6116 31.4159 84.1551 31.6207 83.5806 31.6207C82.3477 31.6207 81.44 30.6999 81.44 29.4767C81.44 28.2967 82.318 27.3327 83.5562 27.3327C84.1552 27.3327 84.6352 27.5443 85.0366 28.0073V27.4303H86.322V28.0764H85.7291V30.8631C85.7291 32.2763 84.9045 33.052 83.6252 33.052C82.6153 33.052 81.9551 32.627 81.6866 31.7805H82.4998ZM85.0366 29.5069C85.0366 28.6396 84.3808 27.9996 83.6086 27.9996C82.8418 27.9996 82.178 28.6154 82.178 29.4697C82.178 30.3595 82.8479 30.9676 83.6086 30.9676C84.3729 30.9676 85.0366 30.3198 85.0366 29.5069ZM90.786 30.2377C90.4319 31.1343 89.6711 31.6353 88.753 31.6353C88.4669 31.6377 88.1833 31.5839 87.9185 31.4769C87.6538 31.37 87.4133 31.2121 87.2109 31.0124C87.0086 30.8126 86.8486 30.5752 86.7401 30.3137C86.6316 30.0523 86.5769 29.7721 86.5791 29.4896C86.5791 28.2682 87.5908 27.3206 88.7302 27.3206C89.9474 27.3206 90.9181 28.2579 90.9181 29.5199C90.9181 29.5821 90.9181 29.6589 90.9032 29.7574H87.3425C87.4605 30.4882 88.0455 30.9676 88.7451 30.9676C89.2715 30.9676 89.7157 30.7162 89.9693 30.2377H90.786ZM90.1477 29.1735C89.964 28.4116 89.4394 27.9779 88.753 27.9779C88.0604 27.9779 87.4824 28.4418 87.3425 29.1735H90.1477ZM91.3474 30.2446H92.0417C92.0417 30.6411 92.3862 31.0385 92.903 31.0385C93.3411 31.0385 93.5982 30.8069 93.5982 30.4096C93.5982 29.9725 93.2659 29.8101 92.5332 29.6641C91.6028 29.4767 91.4025 28.9981 91.4025 28.5006C91.4025 27.8165 91.8931 27.3145 92.6792 27.3145C93.0202 27.3145 93.2869 27.4303 93.5116 27.6722V27.4217H94.0888V28.517H93.4478C93.3516 28.1144 93.1181 27.933 92.7255 27.933C92.3408 27.933 92.1248 28.1213 92.1248 28.4418C92.1248 28.897 92.5008 28.9834 93.1496 29.1475C93.9576 29.3618 94.3336 29.6969 94.3336 30.3664C94.3336 31.1343 93.7924 31.6457 92.9319 31.6457C92.5393 31.6457 92.2411 31.523 91.9787 31.2389V31.5446H91.3474V30.2446Z" fill="white"/>
</svg>
