<svg width="137" height="21" viewBox="0 0 137 21" fill="none" xmlns="http://www.w3.org/2000/svg">
<path fill-rule="evenodd" clip-rule="evenodd" d="M15.7037 6.20346C16.5805 5.83628 17.5547 5.65242 18.515 5.65242C21.804 5.65242 23.8897 7.74303 23.8897 10.5903V20.0323H20.8564V11.0002C20.8564 9.45325 19.9582 8.40429 18.0499 8.40429C17.1917 8.40429 16.3139 8.63062 15.7037 9.00959V20.0323H12.6677V0.75H15.7037V6.20346ZM51.2855 5.92613H54.7709V8.79637H51.2855V14.5889C51.2855 16.0694 52.0873 17.1596 53.9963 17.1596H54.452V20.0323H53.2361C49.3482 20.0323 48.2496 17.6522 48.2496 15.0015V8.79637H43.1405V14.5889C43.1405 16.0694 43.9438 17.1596 45.8528 17.1596H46.3069V20.0323H45.0907C41.2045 20.0323 40.1033 17.6522 40.1033 15.0015V8.79637H38.5645V5.92613H40.1033V2.41027L43.1405 0.75V5.92613H48.2496V2.41027L51.2855 0.75V5.92613ZM90.3192 2.41027L93.3547 0.75V5.92613H96.8411V8.79637H93.3547V14.5889C93.3547 16.0694 94.157 17.1596 96.0676 17.1596H96.5233V20.0323H95.3079C91.4212 20.0323 90.3192 17.6522 90.3192 15.0015V8.79637H88.7211V5.92613H90.3192V2.41027ZM83.1264 11.5997L83.1284 11.6L83.1287 11.6001C83.3099 11.6304 83.4754 11.658 83.5605 11.6728C85.8299 12.0582 87.6799 13.0905 87.7049 15.8117C87.7049 18.735 85.131 20.3056 81.9235 20.3056C78.7449 20.3056 77.0565 19.4323 76.6159 19.2044L76.5691 19.1803L77.7126 16.5463C77.7499 16.5614 77.7952 16.581 77.8487 16.604L77.8488 16.6041C78.3993 16.8412 79.809 17.4485 82.0705 17.4485C83.6201 17.4485 84.6439 16.9433 84.6439 15.8657C84.6439 15.0168 83.9231 14.5336 82.6108 14.3142C82.5426 14.3025 82.4264 14.2827 82.2886 14.2592L82.2879 14.2591L82.2863 14.2588C81.9351 14.199 81.4453 14.1155 81.2522 14.0804C79.3011 13.741 77.2766 12.8419 77.2766 10.0407C77.2766 6.91061 80.2365 5.65247 82.6598 5.65247C85.2602 5.65247 86.9278 6.50975 87.3613 6.73258L87.3828 6.74365L86.3506 9.43583L86.3346 9.42791C86.0833 9.30299 84.4659 8.49908 82.6278 8.49908C81.3624 8.49908 80.3456 8.94648 80.3456 9.90544C80.3456 11.0223 81.3071 11.2818 82.4298 11.4814C82.5532 11.5038 82.8532 11.554 83.1212 11.5988L83.1225 11.599L83.1241 11.5993L83.1247 11.5994L83.125 11.5995L83.126 11.5996L83.1264 11.5997ZM117.07 8.57066C118.255 8.57066 119.468 9.10338 119.832 10.3923L122.587 9.35645C121.815 6.66059 119.282 5.65247 117.048 5.65247C113.045 5.65247 111.431 8.11053 111.431 10.4996V15.4574C111.431 17.8455 113.045 20.3056 117.048 20.3056C119.282 20.3056 121.815 19.2961 122.587 16.6002L119.832 15.5647C119.468 16.8522 118.255 17.388 117.07 17.388C115.007 17.388 114.461 16.2716 114.461 14.9989V10.9571C114.461 9.68584 115.007 8.57066 117.07 8.57066ZM135.724 5.92613L130.049 12.2619L136.096 20.0323H132.453L128.106 14.4299L127.11 15.5427V20.0323H124.072V0.75058H127.11V11.4486L131.991 5.92613H135.724ZM105.333 9.00434H102.176C101.674 9.00434 101.267 9.40753 101.267 9.90182V13.2884H98.1532V9.90182C98.1532 7.70531 99.9531 5.92625 102.176 5.92625H105.333V9.00434ZM105.922 16.9538H102.764V20.0323H105.922C108.143 20.0323 109.943 18.2517 109.943 16.0553V12.6698H106.83V16.0553C106.83 16.5512 106.422 16.9538 105.922 16.9538ZM33.9019 17.2271C33.3248 17.5348 32.5946 17.7113 31.8679 17.7113C29.6021 17.7113 28.7504 16.5701 28.7504 14.9962V5.92618H25.7149V15.0515C25.7149 18.5986 27.7884 20.3056 31.4943 20.3056C33.2691 20.3056 35.2344 19.8619 36.9363 19.1334V5.92618H33.9019V17.2271ZM6.52075 11.5935C6.71698 11.6263 6.90039 11.657 6.99087 11.6728C9.25923 12.0582 11.1087 13.0905 11.1364 15.8117C11.1364 18.735 8.56238 20.3056 5.35495 20.3056C2.18063 20.3056 0.493043 19.4346 0.0486987 19.2053H0.0486964L0 19.1803L1.14248 16.5463C1.17996 16.5615 1.22563 16.5812 1.2795 16.6044C1.83087 16.8417 3.24049 17.4485 5.503 17.4485C7.05204 17.4485 8.07267 16.9433 8.07267 15.8657C8.07267 15.0168 7.355 14.5336 6.04328 14.3142L5.79008 14.2711C5.43656 14.211 4.8894 14.118 4.68305 14.0804C2.72935 13.741 0.707035 12.8419 0.707035 10.0407C0.707035 6.91061 3.66742 5.65248 6.08901 5.65248C8.70239 5.65248 10.3747 6.51724 10.7967 6.73546L10.8126 6.74365L9.78094 9.43583L9.76511 9.42797C9.5142 9.30323 7.89665 8.49908 6.05867 8.49908C4.79181 8.49908 3.77597 8.94648 3.77597 9.90544C3.77597 11.0223 4.73962 11.2818 5.86005 11.4814C5.97897 11.503 6.26108 11.5501 6.52075 11.5935ZM64.2871 11.9097H59.1685V10.8833C59.1685 9.73848 59.7498 8.51061 61.7435 8.51061C63.6653 8.51061 64.2871 9.70642 64.2871 10.8276V11.9097ZM67.3231 10.4996C67.3231 7.91952 65.3342 5.65147 61.7578 5.65147C57.6981 5.65147 56.1394 8.15801 56.1394 10.4996V15.1848C56.1394 18.4259 58.2342 20.3056 61.7578 20.3056C64.8663 20.3056 66.4798 18.5285 66.9589 17.4612L64.3962 15.9389C64.1774 16.5658 63.1627 17.4454 61.7781 17.4454C59.901 17.4454 59.1791 16.41 59.1791 15.1126L59.1685 14.3399H67.3231V10.4996ZM69.2659 20.0323V10.505C69.2659 8.04426 70.978 5.65142 74.8364 5.65142C75.4843 5.65142 76.1114 5.73817 76.3851 5.80354V8.71331C76.1322 8.66641 75.3417 8.56793 74.9919 8.56793C72.764 8.56793 72.2992 9.95165 72.2992 10.7613V20.0323H69.2659Z" fill="white"/>
</svg>
