<svg width="144" height="31" viewBox="0 0 144 31" fill="none" xmlns="http://www.w3.org/2000/svg">
<path fill-rule="evenodd" clip-rule="evenodd" d="M15.2615 31C23.6903 31 30.5231 24.0604 30.5231 15.5C30.5231 6.93959 23.6903 0 15.2615 0C6.83282 0 0 6.93959 0 15.5C0 24.0604 6.83282 31 15.2615 31ZM14.5934 7.36256C11.7318 7.36256 9.4426 9.68756 9.4426 12.5938C9.4426 15.5001 11.7318 17.8251 14.5934 17.8251V7.36256ZM15.9288 13.1751V23.6376C18.7903 23.6376 21.0795 21.3126 21.0795 18.4063C21.0795 15.5001 18.7903 13.1751 15.9288 13.1751ZM18.3611 7.36256C19.6964 7.36256 20.7934 8.47663 20.7934 9.83288C20.7934 11.1891 19.6964 12.3032 18.3611 12.3032C17.0257 12.3032 15.9288 11.1891 15.9288 9.83288C15.9288 8.47663 17.0257 7.36256 18.3611 7.36256ZM14.5934 21.1673C14.5934 19.811 13.4964 18.6969 12.1611 18.6969C10.8257 18.6969 9.72875 19.811 9.72875 21.1673C9.72875 22.5235 10.8257 23.6376 12.1611 23.6376C13.4964 23.6376 14.5934 22.5235 14.5934 21.1673ZM38.2493 17.3406C37.3909 17.3406 36.8186 18.0187 36.8186 18.9875C36.8186 20.6828 39.0124 22.1844 41.5878 22.1844C44.3539 22.1844 46.357 20.7313 46.357 18.1156C46.357 15.5969 44.5447 14.725 42.1124 13.8531C40.777 13.3687 39.6324 12.8359 39.6324 11.7219C39.6324 10.7047 40.4432 10.0266 41.7786 10.0266C42.3986 10.0266 43.0186 10.1719 43.5909 10.4625C43.4955 10.6562 43.4478 10.85 43.4478 11.0922V11.1406C43.4955 11.9641 44.1632 12.5453 44.9262 12.4969C45.6893 12.4969 46.3093 11.9156 46.3093 10.9469C46.3093 9.3 44.3539 7.99219 41.8262 7.99219C39.1078 7.99219 37.3432 9.6875 37.3432 11.8672C37.3432 14.3859 39.1078 15.2094 41.6355 16.1297C42.9709 16.6141 44.1155 17.1469 44.1155 18.2609C44.1155 19.4234 43.1616 20.1016 41.6832 20.1016C40.9201 20.15 40.157 19.9078 39.537 19.5203C39.6801 19.2781 39.7278 18.9875 39.7278 18.6969C39.6801 17.9219 39.0124 17.2922 38.2493 17.3406ZM49.1232 19.4234C49.0755 19.9562 49.1709 20.4406 49.4093 20.8766C49.8862 21.7484 50.7924 22.0875 51.937 22.0875C52.6524 22.0875 53.4155 21.8937 54.0832 21.5547L54.2739 19.6172C53.7493 19.9078 53.1293 20.0531 52.5093 20.1016C52.1278 20.15 51.7462 19.9562 51.5555 19.6656C51.4601 19.4719 51.4124 19.2297 51.4124 18.9875V14.725H54.1309V12.7875H51.3647V9.88125L49.1232 10.85V12.7875H47.3586V14.725H49.1232V19.4234ZM60.0924 12.6422C57.1355 12.6422 55.2755 14.8703 55.2755 17.3891C55.2755 19.9078 57.0878 22.0875 60.0924 22.1359C63.0493 22.1359 64.9093 19.9078 64.9093 17.3891C64.9093 14.8219 63.097 12.6422 60.0924 12.6422ZM60.0924 14.5797C61.5232 14.5797 62.5724 15.7422 62.5724 17.3891C62.5724 19.0359 61.5232 20.1984 60.0924 20.1984C58.6616 20.1984 57.6124 19.0359 57.6124 17.3891C57.6124 15.7422 58.6139 14.5797 60.0924 14.5797ZM72.6832 15.5484C73.4462 15.5484 74.0185 14.9187 74.0185 14.1438C74.0185 13.3688 73.4939 12.6422 72.3016 12.6422C71.157 12.6422 70.2032 13.6594 69.4401 14.8703V12.7875H65.9586V14.725H67.2939V20.0531H65.9586V21.9422H71.1093V20.0531H69.5355V16.4688C69.9647 15.6938 70.5847 15.0641 71.3478 14.725C71.5863 15.2578 72.1109 15.5484 72.6832 15.5484ZM75.2109 24.6063C75.2109 25.3328 75.9739 26.0594 77.1662 26.0594C78.1201 26.0594 78.9786 25.6234 79.5985 24.8484C79.8847 24.5094 80.1232 24.1219 80.3139 23.7344L84.5586 14.6766H85.6555V12.7391H81.0293V14.5312H82.4124L80.3139 19.3266L78.2155 14.5312H79.5509V12.7391H74.877V14.6766H75.9739L79.1693 21.4094L78.5016 22.8625C78.4063 23.0562 78.3109 23.2069 78.2155 23.3576C78.1678 23.433 78.1201 23.5083 78.0724 23.5891C77.9293 23.8312 77.6432 24.025 77.357 24.1219C77.2139 23.6859 76.7847 23.4438 76.3555 23.4438H76.2124C75.5924 23.4922 75.1632 24.025 75.2109 24.6063ZM88.517 21.9906L88.9939 21.0703C89.757 21.7484 90.7585 22.0875 91.7601 22.0875C94.1924 22.0875 96.1001 20.0047 96.1001 17.3406C96.1001 14.5797 94.2878 12.6422 91.9032 12.6422C90.9016 12.6422 89.9478 13.0781 89.2324 13.8047V6.68437H85.6078V8.62187H86.9909V21.9906H88.517ZM91.3786 14.5797C92.7139 14.5797 93.7632 15.5969 93.7632 17.3406C93.7632 19.1812 92.6662 20.15 91.3786 20.15C90.6155 20.1016 89.8524 19.8594 89.2324 19.4234V15.5C89.8047 14.9187 90.5678 14.5797 91.3786 14.5797ZM98.3893 20.0531H97.0062V21.9422H102.014V20.0531H100.679V6.68437H97.0062V8.62187H98.3893V20.0531ZM107.785 12.6422C104.828 12.6422 102.968 14.8703 102.968 17.3891C102.968 19.9078 104.78 22.0875 107.785 22.1359C110.742 22.1359 112.602 19.9078 112.602 17.3891C112.602 14.8219 110.789 12.6422 107.785 12.6422ZM107.785 14.5797C109.215 14.5797 110.265 15.7422 110.265 17.3891C110.265 19.0359 109.215 20.1984 107.785 20.1984C106.354 20.1984 105.305 19.0359 105.305 17.3891C105.305 15.7422 106.306 14.5797 107.785 14.5797ZM118.42 12.6422C115.892 12.6422 113.842 14.725 113.842 17.2922C113.842 20.2469 115.988 22.0875 118.802 22.0875C119.899 22.1359 121.043 21.8453 121.997 21.2641L122.188 19.2297C121.043 19.9078 120.089 20.1984 118.992 20.1984C117.419 20.1984 116.083 19.0844 116.083 17.3406C116.083 15.3547 117.323 14.4828 118.372 14.4828C119.279 14.4828 119.851 14.8703 119.994 15.1125C119.803 15.3547 119.708 15.5969 119.708 15.8875C119.755 16.6141 120.328 17.2437 121.091 17.2437H121.234C121.997 17.1953 122.569 16.4688 122.522 15.6938C122.522 14.2891 120.9 12.6422 118.42 12.6422ZM125.049 20.0531H123.762V21.9906H128.483V20.15H127.339V18.9875L128.626 17.8734L131.202 21.9906H134.015V20.0531H132.537L130.248 16.5656L132.346 14.7734H134.015V12.8359H128.674V14.6281H129.914L127.291 16.9047V6.68437H123.714V8.62187H125.049V20.0531ZM140.454 14.9672C140.454 15.6453 140.979 16.0812 141.694 16.0812C142.362 16.0812 142.839 15.5484 142.743 14.8703C142.743 14.4344 142.6 13.9984 142.266 13.7078C141.646 13.1266 140.311 12.6906 139.214 12.6906C136.686 12.6906 135.542 14.1922 135.542 15.5969C135.542 17.1469 136.591 17.7281 139.071 18.4062C140.454 18.7938 140.835 19.0844 140.835 19.5203C140.835 20.1984 140.072 20.4891 139.166 20.4891C138.594 20.4891 138.069 20.3922 137.545 20.1984C137.592 20.0531 137.592 19.9563 137.592 19.8109V19.7141C137.592 19.0844 137.02 18.5516 136.4 18.6H136.352C135.732 18.6 135.208 19.1328 135.208 19.8109C135.208 20.2469 135.399 20.7313 135.732 21.0219C136.352 21.6516 137.831 22.1359 139.214 22.1359C141.265 22.1359 143.029 21.1187 143.029 19.1812C143.029 17.5344 141.742 17.0016 139.595 16.4203C138.212 16.0328 137.688 15.7906 137.688 15.2578C137.688 14.7734 138.212 14.3375 139.214 14.3375C139.643 14.3375 140.072 14.4344 140.502 14.5797C140.454 14.6766 140.454 14.8219 140.454 14.9672Z" fill="white"/>
</svg>
